<svg xmlns="http://www.w3.org/2000/svg" width="32" height="32" fill="none"><path fill="#F53" d="M15.632 30a6.632 6.632 0 1 0 0-13.264 6.632 6.632 0 0 0 0 13.264zm-5.03-17.054 5.03-4.314V5.314L9.34 10.71c.271.83.704 1.586 1.263 2.236zM9.087 7.609 15.632 2a6.626 6.626 0 0 0-6.545 5.609zm6.545 7.655V11.95l-3.015 2.586a6.64 6.64 0 0 0 3.015.728zm3.015-12.532A6.585 6.585 0 0 0 15.632 2v3.314l3.015-2.582zm3.53 6.923-6.545 5.609a6.626 6.626 0 0 0 6.545-5.609z"/><path fill="#F53" d="M21.925 6.554a6.619 6.619 0 0 0-1.263-2.232l-5.03 4.31v3.314l6.293-5.392z"/></svg>